<svg width="662" height="728" viewBox="0 0 662 728" fill="none" xmlns="http://www.w3.org/2000/svg">
<path fill-rule="evenodd" clip-rule="evenodd" d="M542.851 364.434L661.498 569.624C661.498 569.624 568.342 581.165 523.322 500.164L493.778 449.302L542.851 364.434ZM493.777 279.565L523.825 227.836C548.389 185.546 602.438 158.376 662 158.376L542.851 364.434L493.777 279.565ZM444.481 364.432L493.778 449.302L381.826 642.914L381.855 642.963L332.508 727.917L332.274 728L332.04 727.917L169.834 449.183L219.565 363.568L332.274 557.606L444.481 364.432ZM169.835 277.953L331.413 0.297076C331.493 0.158639 331.621 0.0533369 331.772 0L332.006 0.0826239L381.353 85.0369L381.324 85.0858L493.777 279.565L444.481 364.432L331.772 170.394L219.565 363.568L169.835 277.953ZM119.982 363.569L169.834 449.183L141.065 498.712C115.987 541.886 60.8077 569.624 0 569.624L119.982 363.569ZM119.982 363.569L0.502276 158.376C61.31 158.376 116.489 186.114 141.568 229.288L169.835 277.953L119.982 363.569Z" fill="white"/>
</svg>
